<?xml version="1.0" encoding="UTF-8" standalone="no"?>
<!-- Uploaded to: SVG Repo, www.svgrepo.com, Transformed by: SVG Repo Tools -->

<svg
   version="1.1"
   id="Layer_1"
   width="800px"
   height="800px"
   viewBox="0 0 40 40"
   enable-background="new 0 0 40 40"
   xml:space="preserve"
   sodipodi:docname="linkedin-svgrepo-com3.svg"
   inkscape:version="1.2.2 (b0a8486541, 2022-12-01)"
   xmlns:inkscape="http://www.inkscape.org/namespaces/inkscape"
   xmlns:sodipodi="http://sodipodi.sourceforge.net/DTD/sodipodi-0.dtd"
   xmlns:xlink="http://www.w3.org/1999/xlink"
   xmlns="http://www.w3.org/2000/svg"
   xmlns:svg="http://www.w3.org/2000/svg"><defs
   id="defs3522"><linearGradient
     id="linearGradient4043"
     inkscape:swatch="solid"><stop
       style="stop-color:#000000;stop-opacity:1;"
       offset="0"
       id="stop4041" /></linearGradient><linearGradient
     id="linearGradient4006"
     inkscape:swatch="solid"><stop
       style="stop-color:#000000;stop-opacity:1;"
       offset="0"
       id="stop4004" /></linearGradient><linearGradient
     inkscape:collect="always"
     xlink:href="#linearGradient4043"
     id="linearGradient4045"
     x1="5.6"
     y1="20.0005"
     x2="34.4"
     y2="20.0005"
     gradientUnits="userSpaceOnUse" /></defs><sodipodi:namedview
   id="namedview3520"
   pagecolor="#ffffff"
   bordercolor="#666666"
   borderopacity="1.0"
   inkscape:showpageshadow="2"
   inkscape:pageopacity="0.0"
   inkscape:pagecheckerboard="0"
   inkscape:deskcolor="#d1d1d1"
   showgrid="false"
   inkscape:zoom="1.2025"
   inkscape:cx="229.52183"
   inkscape:cy="400"
   inkscape:window-width="1920"
   inkscape:window-height="1132"
   inkscape:window-x="0"
   inkscape:window-y="309"
   inkscape:window-maximized="1"
   inkscape:current-layer="Layer_1" />






























































































<g
   id="g3517"
   style="fill-opacity:1;fill:none;stroke-width:0.25000004;stroke-dasharray:none;stroke:#000000;stroke-opacity:1">
	<path
   d="M28.109,34.4c-0.35,0-0.635-0.284-0.635-0.634V24.13c0-3.484-1.788-3.484-2.462-3.484c-1.878,0-2.829,1.172-2.829,3.484   v9.637c0,0.35-0.284,0.634-0.634,0.634H16.1c-0.35,0-0.634-0.284-0.634-0.634V15.41c0-0.35,0.284-0.634,0.634-0.634h5.45   c0.35,0,0.634,0.284,0.634,0.634v0.684l0.328-0.271c1.29-1.067,2.829-1.608,4.574-1.608c2.157,0,3.973,0.689,5.251,1.994   c1.35,1.378,2.063,3.43,2.063,5.933v11.625c0,0.35-0.285,0.634-0.635,0.634H28.109z M25.013,19.376   c1.394,0,3.732,0.618,3.732,4.754v9.002h4.385v-10.99c0-4.231-2.203-6.657-6.044-6.657c-3.43,0-4.916,2.59-4.978,2.7   c-0.112,0.203-0.324,0.329-0.555,0.329c-0.052,0-0.105-0.008-0.159-0.021c-0.282-0.071-0.479-0.322-0.479-0.61v-1.837h-4.18v17.087   h4.18V24.13C20.915,21.153,22.447,19.376,25.013,19.376L25.013,19.376z"
   id="path3511"
   style="fill-opacity:1;fill:none;stroke-width:0.25000004;stroke-dasharray:none;stroke:#000000;stroke-opacity:1" />
	<path
   d="M6.78,34.4c-0.35,0-0.635-0.284-0.635-0.634V15.41c0-0.35,0.285-0.634,0.635-0.634h5.685c0.35,0,0.634,0.284,0.634,0.634   v18.356c0,0.35-0.284,0.634-0.634,0.634H6.78z M7.415,33.132h4.415V16.045H7.415V33.132z"
   id="path3513"
   style="fill-opacity:1;fill:none;stroke-width:0.25000004;stroke-dasharray:none;stroke:#000000;stroke-opacity:1" />
	<path
   d="M9.597,13.639c-2.204,0-3.997-1.803-3.997-4.019C5.6,7.403,7.393,5.6,9.597,5.6c2.201,0,3.993,1.804,3.993,4.021   C13.59,11.836,11.798,13.639,9.597,13.639L9.597,13.639z M9.597,6.866c-1.504,0-2.727,1.235-2.727,2.754   c0,1.518,1.223,2.751,2.727,2.751c1.503,0,2.725-1.233,2.725-2.751C12.321,8.102,11.1,6.866,9.597,6.866L9.597,6.866z"
   id="path3515"
   style="fill-opacity:1;fill:none;stroke-width:0.25000004;stroke-dasharray:none;stroke:#000000;stroke-opacity:1" />
</g>
</svg>
