<?xml version="1.0" encoding="UTF-8" standalone="no"?>
<!-- Uploaded to: SVG Repo, www.svgrepo.com, Transformed by: SVG Repo Tools -->

<svg
   fill="#000000"
   width="800px"
   height="800px"
   viewBox="0 -2.04 16 16"
   id="mail-16px"
   version="1.1"
   sodipodi:docname="mail-svgrepo-com.svg"
   inkscape:version="1.2.2 (b0a8486541, 2022-12-01)"
   xmlns:inkscape="http://www.inkscape.org/namespaces/inkscape"
   xmlns:sodipodi="http://sodipodi.sourceforge.net/DTD/sodipodi-0.dtd"
   xmlns="http://www.w3.org/2000/svg"
   xmlns:svg="http://www.w3.org/2000/svg">
  <defs
     id="defs6">
    <linearGradient
       id="linearGradient2888"
       inkscape:swatch="solid">
      <stop
         style="stop-color:#000000;stop-opacity:1;"
         offset="0"
         id="stop2886" />
    </linearGradient>
    <linearGradient
       id="linearGradient871"
       inkscape:swatch="gradient">
      <stop
         style="stop-color:#000000;stop-opacity:1;"
         offset="0"
         id="stop867" />
      <stop
         style="stop-color:#000000;stop-opacity:0;"
         offset="1"
         id="stop869" />
    </linearGradient>
  </defs>
  <sodipodi:namedview
     id="namedview4"
     pagecolor="#ffffff"
     bordercolor="#666666"
     borderopacity="1.0"
     inkscape:showpageshadow="2"
     inkscape:pageopacity="0.0"
     inkscape:pagecheckerboard="0"
     inkscape:deskcolor="#d1d1d1"
     showgrid="false"
     inkscape:zoom="0.60125"
     inkscape:cx="-293.55509"
     inkscape:cy="449.06445"
     inkscape:window-width="1920"
     inkscape:window-height="1132"
     inkscape:window-x="0"
     inkscape:window-y="309"
     inkscape:window-maximized="1"
     inkscape:current-layer="mail-16px" />
  <path
     id="Path_76"
     data-name="Path 76"
     d="M -8.417,3.169 A 2.493,2.493 0 0 0 -9.124,2.462 2.481,2.481 0 0 0 -10.5,2.045 h -11 A 2.481,2.481 0 0 0 -22.876,2.462 2.493,2.493 0 0 0 -23.583,3.169 2.483,2.483 0 0 0 -24,4.545 v 6.91 a 2.5,2.5 0 0 0 2.5,2.5 h 11 a 2.5,2.5 0 0 0 2.5,-2.5 V 4.545 A 2.483,2.483 0 0 0 -8.417,3.169 Z M -21.5,3.045 h 11 a 1.48,1.48 0 0 1 0.643,0.151 L -16,9.338 -22.143,3.2 A 1.48,1.48 0 0 1 -21.5,3.045 Z m 11,9.91 h -11 a 1.48,1.48 0 0 1 -0.643,-0.151 l 3.087,-3.087 a 0.5,0.5 0 0 0 0,-0.707 0.5,0.5 0 0 0 -0.707,0 L -22.85,12.1 A 1.489,1.489 0 0 1 -23,11.458 V 4.545 a 1.489,1.489 0 0 1 0.15,-0.642 l 6.5,6.5 a 0.5,0.5 0 0 0 0.354,0.146 0.5,0.5 0 0 0 0.354,-0.146 l 6.5,-6.5 A 1.489,1.489 0 0 1 -9,4.545 v 6.91 a 1.489,1.489 0 0 1 -0.15,0.642 L -12.237,9.01 a 0.5,0.5 0 0 0 -0.707,0 0.5,0.5 0 0 0 0,0.707 l 3.087,3.083 a 1.48,1.48 0 0 1 -0.643,0.155 z"
     transform="translate(24,-2.045)"
     style="display:inline;stroke-width:0.086;stroke-dasharray:none;fill:none;fill-opacity:1;stroke:#000000;stroke-opacity:1;stroke-dashoffset:0"
     inkscape:label="Path_76" />
</svg>
